<?xml version="1.0" standalone="no"?>
<!DOCTYPE svg PUBLIC "-//W3C//DTD SVG 1.1//EN" "http://www.w3.org/Graphics/SVG/1.1/DTD/svg11.dtd" >
<svg xmlns="http://www.w3.org/2000/svg" xmlns:xlink="http://www.w3.org/1999/xlink" version="1.1">
<metadata>
Created by FontForge 20170731 at Wed Jul 13 13:55:31 2022
 By Aleksey,,,
Copyright V. Sarela 2011
</metadata>
<defs>
<font id="Future-Earth" horiz-adv-x="1664" >
  <font-face 
    font-family="Future Earth"
    font-weight="400"
    font-stretch="normal"
    units-per-em="2048"
    panose-1="0 0 4 0 0 0 0 0 0 0"
    ascent="1638"
    descent="-410"
    x-height="1109"
    cap-height="1109"
    bbox="-213 -341 2645 1706"
    underline-thickness="102"
    underline-position="51"
    unicode-range="U+0020-20AC"
  />
<missing-glyph horiz-adv-x="1483" 
d="M1243 50l-587 784l-587 -784h1174zM50 69l587 784l-587 784v-1568v0zM1262 69v1568l-587 -784l587 -784v0zM656 872l587 784h-1174l587 -784v0zM0 0v1706h1312v-1706h-1312z" />
    <glyph glyph-name=".notdef" horiz-adv-x="1483" 
d="M1243 50l-587 784l-587 -784h1174zM50 69l587 784l-587 784v-1568v0zM1262 69v1568l-587 -784l587 -784v0zM656 872l587 784h-1174l587 -784v0zM0 0v1706h1312v-1706h-1312z" />
    <glyph glyph-name=".null" horiz-adv-x="0" 
 />
    <glyph glyph-name="nonmarkingreturn" horiz-adv-x="682" 
 />
    <glyph glyph-name="space" unicode=" " horiz-adv-x="597" 
 />
    <glyph glyph-name="exclam" unicode="!" horiz-adv-x="426" 
d="M0 0v256h256v-256h-256zM0 426v683h256v-683h-256z" />
    <glyph glyph-name="quotedbl" unicode="&#x22;" horiz-adv-x="597" 
d="M0 682v427h170v-427h-170zM256 682v427h170v-427h-170z" />
    <glyph glyph-name="numbersign" unicode="#" horiz-adv-x="1024" 
d="M512 469v171h-171v-171h171zM170 42v256h-170v171h170v171h-170v170h170v256h171v-256h171v256h170v-256h171v-170h-171v-171h171v-171h-171v-256h-170v256h-171v-256h-171z" />
    <glyph glyph-name="dollar" unicode="$" horiz-adv-x="1536" 
d="M960 256q35 0 60 24q25 26 25 61t-25 60t-60 25h-150v-170h150zM554 682v171h-128q-35 0 -60 -25t-25 -60q0 -36 25 -61t60 -25h128zM554 -170v170h-596v256h596v170h-384q-70 0 -121 50q-49 50 -49 121v341q0 70 49 121q51 50 121 50h384v171h256v-171h512v-256h-512
v-171h406q70 0 120 -50t50 -120v-342q0 -70 -50 -121q-50 -49 -120 -49h-406v-170h-256z" />
    <glyph glyph-name="percent" unicode="%" horiz-adv-x="1877" 
d="M1450 128q35 0 61 24q25 26 25 61v128q0 35 -25 60q-26 25 -61 25h-149q-35 0 -61 -25q-24 -25 -24 -60v-128q0 -35 24 -61q26 -24 61 -24h149zM1216 0q-71 0 -121 50q-50 49 -50 120v214q0 70 50 120t121 50h320q70 0 120 -50t50 -120v-214q0 -71 -50 -120
q-50 -50 -120 -50h-320zM405 682q35 0 60 25t25 61v128q0 35 -25 60t-60 25h-149q-36 0 -61 -25t-25 -60v-128q0 -36 25 -61t61 -25h149zM170 554q-70 0 -120 50t-50 121v213q0 71 50 121t120 50h320q71 0 121 -50t50 -121v-213q0 -71 -50 -121t-121 -50h-320zM490 0
l555 1109h171l-555 -1109h-171z" />
    <glyph glyph-name="ampersand" unicode="&#x26;" horiz-adv-x="1450" 
d="M149 0q-71 0 -121 49q-49 51 -49 121v341q0 71 49 121q50 50 121 50h107q-71 0 -121 50t-50 121v85q0 71 50 121t121 50h938v-256h-682q-36 0 -61 -25t-25 -60q0 -36 25 -61t61 -25h277v-256h-384q-35 0 -61 -25q-24 -25 -24 -60t24 -61q26 -24 61 -24h512q35 0 60 24
q25 26 25 61v341h299v-512q0 -71 -50 -120q-50 -50 -121 -50h-981z" />
    <glyph glyph-name="quotesingle" unicode="'" horiz-adv-x="426" 
d="M12 682l97 171h-109v256h256v-256l-98 -171h-146z" />
    <glyph glyph-name="parenleft" unicode="(" horiz-adv-x="682" 
d="M341 -256q-142 0 -241 101q-100 100 -100 240v939q0 141 100 241t241 100h256v-256h-85q-71 0 -121 -50t-50 -121v-768q0 -70 50 -121q50 -49 121 -49h85v-256h-256z" />
    <glyph glyph-name="parenright" unicode=")" horiz-adv-x="682" 
d="M-85 -256v256h85q70 0 120 49q50 51 50 121v768q0 71 -50 121t-120 50h-85v256h255q142 0 241 -100q101 -100 101 -241v-939q0 -141 -101 -240q-100 -101 -241 -101h-255z" />
    <glyph glyph-name="asterisk" unicode="*" horiz-adv-x="640" 
d="M170 640v149l-85 -85l-85 85l85 85l-85 86l85 85l85 -85v149h128v-149l86 85l85 -85l-85 -86l85 -85l-85 -85l-86 85v-149h-128z" />
    <glyph glyph-name="plus" unicode="+" horiz-adv-x="853" 
d="M256 213v256h-256v171h256v256h170v-256h256v-171h-256v-256h-170z" />
    <glyph glyph-name="comma" unicode="," horiz-adv-x="426" 
d="M12 -170l97 170h-109v256h256v-256l-98 -170h-146z" />
    <glyph glyph-name="hyphen" unicode="-" horiz-adv-x="725" 
d="M0 426v256h554v-256h-554z" />
    <glyph glyph-name="period" unicode="." horiz-adv-x="426" 
d="M0 0v256h256v-256h-256z" />
    <glyph glyph-name="slash" unicode="/" horiz-adv-x="853" 
d="M-21 0l554 1109h171l-555 -1109h-170z" />
    <glyph glyph-name="zero" unicode="0" horiz-adv-x="1493" 
d="M810 256q71 0 121 49q50 51 50 121v256q0 71 -50 121t-121 50h-298q-71 0 -121 -50t-50 -121v-256q0 -70 50 -121q50 -49 121 -49h298zM341 0q-142 0 -241 100q-100 100 -100 241v427q0 141 100 241t241 100h640q141 0 241 -100t100 -241v-427q0 -142 -100 -241
q-100 -100 -241 -100h-640z" />
    <glyph glyph-name="one" unicode="1" horiz-adv-x="661" 
d="M149 0v836l-191 -154v342l106 85h426v-1109h-341z" />
    <glyph glyph-name="two" unicode="2" horiz-adv-x="1493" 
d="M-21 0v511q0 71 49 121q50 50 121 50h747q35 0 60 25t25 61q0 35 -25 60t-60 25h-875v256h1131q70 0 120 -50t50 -121v-341q0 -71 -50 -121t-120 -50h-747q-35 0 -61 -25q-24 -25 -24 -60v-85h1045v-256h-1386z" />
    <glyph glyph-name="three" unicode="3" horiz-adv-x="1450" 
d="M-42 0v256h916q35 0 61 24q25 26 25 61t-25 60q-26 25 -61 25h-640l427 427h-661v256h1301l-427 -427h256q71 0 121 -50t50 -120v-342q0 -70 -50 -121q-50 -49 -121 -49h-1172z" />
    <glyph glyph-name="four" unicode="4" horiz-adv-x="1429" 
d="M832 0v426h-832v683h341v-427h491v427h341v-427h128v-256h-128v-426h-341z" />
    <glyph glyph-name="five" unicode="5" horiz-adv-x="1514" 
d="M-21 0v256h959q35 0 61 24q25 26 25 61t-25 60q-26 25 -61 25h-768q-70 0 -121 50q-49 50 -49 121v512h1344v-256h-1003v-85q0 -36 25 -61t60 -25h768q71 0 121 -50t50 -120v-342q0 -70 -50 -121q-50 -49 -121 -49h-1215z" />
    <glyph glyph-name="six" unicode="6" horiz-adv-x="1450" 
d="M874 256q35 0 61 24q25 26 25 61t-25 60q-26 25 -61 25h-448q-35 0 -60 -25t-25 -60t25 -61q25 -24 60 -24h448zM341 0q-142 0 -241 100q-100 100 -100 241v427q0 141 100 241t241 100h917v-256h-832q-35 0 -60 -25t-25 -60q0 -36 25 -61t60 -25h704q71 0 121 -50
t50 -120v-342q0 -70 -50 -121q-50 -49 -121 -49h-789z" />
    <glyph glyph-name="seven" unicode="7" horiz-adv-x="1301" 
d="M106 0l285 341l213 256l213 256h-902v256h1301v-256l-712 -853h-398z" />
    <glyph glyph-name="eight" unicode="8" horiz-adv-x="1472" 
d="M896 256q35 0 60 24q25 26 25 61t-25 60t-60 25h-491q-35 0 -61 -25q-24 -25 -24 -60t24 -61q26 -24 61 -24h491zM832 682q35 0 60 25t25 61q0 35 -25 60t-60 25h-363q-35 0 -61 -25q-24 -25 -24 -60q0 -36 24 -61q26 -25 61 -25h363zM149 0q-71 0 -121 49
q-49 51 -49 121v256q0 70 49 121q50 50 121 50h64q-71 0 -121 50t-50 120v171q0 71 50 121t121 50h875q70 0 120 -50t50 -121v-170q0 -71 -50 -121t-120 -50h64q70 0 120 -50t50 -121v-256q0 -70 -50 -121q-50 -49 -120 -49h-1003z" />
    <glyph glyph-name="nine" unicode="9" horiz-adv-x="1450" 
d="M853 682q35 0 60 25t25 61q0 35 -25 60t-60 25h-448q-35 0 -61 -25q-24 -25 -24 -60q0 -36 24 -61q26 -25 61 -25h448zM0 0v256h853q35 0 60 24q25 26 25 61t-25 60t-60 25h-704q-71 0 -121 50q-49 50 -49 121v341q0 70 49 121q50 50 121 50h789q142 0 241 -100
q101 -100 101 -241v-427q0 -142 -101 -241q-100 -100 -241 -100h-938z" />
    <glyph glyph-name="colon" unicode=":" horiz-adv-x="426" 
d="M0 0v256h256v-256h-256zM0 426v256h256v-256h-256z" />
    <glyph glyph-name="semicolon" unicode=";" horiz-adv-x="426" 
d="M12 -170l97 170h-109v256h256v-256l-98 -170h-146zM0 426v256h256v-256h-256z" />
    <glyph glyph-name="less" unicode="&#x3c;" horiz-adv-x="682" 
d="M512 213l-512 256v171l512 256v-171l-342 -171l342 -170v-171v0z" />
    <glyph glyph-name="equal" unicode="=" horiz-adv-x="682" 
d="M0 298v171h512v-171h-512zM0 640v170h512v-170h-512z" />
    <glyph glyph-name="greater" unicode="&#x3e;" horiz-adv-x="682" 
d="M0 213v171l341 170l-341 171v171l512 -256v-171l-512 -256v0z" />
    <glyph glyph-name="question" unicode="?" horiz-adv-x="1109" 
d="M234 0v256h256v-256h-256zM234 426v256h299q35 0 60 25t25 61q0 35 -25 60t-60 25h-575v256h831q70 0 121 -50q50 -50 50 -121v-341q0 -71 -50 -121q-51 -50 -121 -50h-555z" />
    <glyph glyph-name="at" unicode="@" horiz-adv-x="1877" 
d="M1237 426q35 0 60 25t25 61q0 35 -25 60t-60 25h-469q-36 0 -61 -25t-25 -60q0 -36 25 -61t61 -25h469zM341 -170q-141 0 -241 100q-100 99 -100 240v683q0 141 100 241t241 100h1024q141 0 241 -100t100 -241v-683h-341v58q-4 -4 -7 -8q-51 -50 -121 -50h-725
q-71 0 -121 50t-50 121v341q0 70 50 121q50 50 121 50h725q70 0 121 -50q3 -4 7 -8v58q0 70 -50 120q-50 51 -121 51h-853q-71 0 -121 -51q-50 -50 -50 -120v-683q0 -70 50 -120t121 -50h1365v-170h-1365z" />
    <glyph glyph-name="A" unicode="A" horiz-adv-x="1706" 
d="M993 426l-204 357q-9 6 -21 6q-13 0 -22 -6l-204 -357h451zM-76 0l534 936q25 51 68 94q100 100 242 100q141 0 241 -100q43 -43 68 -94l535 -936h-375l-146 256h-647l-146 -256h-374z" />
    <glyph glyph-name="B" unicode="B" horiz-adv-x="1557" 
d="M981 256q35 0 60 24q25 26 25 61t-25 60t-60 25h-640v-170h640zM938 682q35 0 61 25q25 25 25 61q0 35 -25 60q-26 25 -61 25h-597v-171h597zM0 0v1109h1194q71 0 121 -50t50 -121v-192q0 -70 -50 -121q-50 -49 -121 -49h43q70 0 121 -50q50 -51 50 -121v-235
q0 -70 -50 -121q-51 -49 -121 -49h-1237z" />
    <glyph glyph-name="C" unicode="C" horiz-adv-x="1365" 
d="M341 0q-142 0 -241 100q-100 100 -100 241v427q0 141 100 241t241 100h896v-256h-725q-71 0 -121 -50t-50 -121v-256q0 -70 50 -121q50 -49 121 -49h725v-256h-896z" />
    <glyph glyph-name="D" unicode="D" horiz-adv-x="1578" 
d="M896 256q70 0 120 49q50 51 50 121v256q0 71 -50 121t-120 50h-555v-597h555zM0 0v1109h1066q142 0 241 -100q101 -100 101 -241v-427q0 -142 -101 -241q-100 -100 -241 -100h-1066z" />
    <glyph glyph-name="E" unicode="E" horiz-adv-x="1386" 
d="M341 0q-142 0 -241 100q-100 100 -100 241v427q0 141 100 241t241 100h896v-256h-811q-35 0 -60 -25t-25 -60v-86h875v-256h-875v-85q0 -35 25 -61q25 -24 60 -24h832v-256h-917z" />
    <glyph glyph-name="F" unicode="F" horiz-adv-x="1365" 
d="M0 0v768q0 141 100 241t241 100h896v-256h-811q-35 0 -60 -25t-25 -60v-86h875v-256h-875v-426h-341z" />
    <glyph glyph-name="G" unicode="G" horiz-adv-x="1493" 
d="M341 0q-142 0 -241 100q-100 100 -100 241v427q0 141 100 241t241 100h981v-256h-810q-71 0 -121 -50t-50 -121v-256q0 -70 50 -121q50 -49 121 -49h426q35 0 61 24q25 26 25 61t-25 60q-26 25 -61 25h-298v256h384q141 0 241 -100t100 -241q0 -142 -100 -241
q-100 -100 -241 -100h-683z" />
    <glyph glyph-name="H" unicode="H" horiz-adv-x="1578" 
d="M0 0v1109h341v-427h725v427h342v-1109h-342v426h-725v-426h-341z" />
    <glyph glyph-name="I" unicode="I" horiz-adv-x="512" 
d="M0 0v1109h341v-1109h-341z" />
    <glyph glyph-name="J" unicode="J" horiz-adv-x="1066" 
d="M-85 0v256h469q70 0 120 49q50 51 50 121v683h342v-768q0 -142 -101 -241q-100 -100 -241 -100h-639z" />
    <glyph glyph-name="K" unicode="K" horiz-adv-x="1536" 
d="M0 0v1109h341v-427h149l534 427h426l-672 -538l715 -571h-469l-534 426h-149v-426h-341z" />
    <glyph glyph-name="L" unicode="L" horiz-adv-x="1322" 
d="M341 0q-142 0 -241 100q-100 100 -100 241v768h341v-683q0 -70 50 -121q50 -49 121 -49h725v-256h-896z" />
    <glyph glyph-name="M" unicode="M" horiz-adv-x="2048" 
d="M0 0v832q0 123 87 211q88 87 211 87h22q141 0 241 -100q55 -55 80 -123l297 -595l297 595q25 68 81 123q100 100 241 100h21q124 0 211 -87q88 -88 88 -211v-832h-341v704q0 17 -13 30q-13 12 -30 12q-9 0 -17 -3q-7 -3 -13 -9h-1l-367 -734h-313l-171 341l-197 393
q-6 6 -14 9t-16 3q-18 0 -31 -12q-12 -13 -12 -30v-704h-341z" />
    <glyph glyph-name="N" unicode="N" horiz-adv-x="1728" 
d="M1237 -21q-141 0 -241 99q-4 3 -7 7h-1l-12 15q-4 4 -7 8l-408 489l-154 185q-3 2 -7 4q-8 3 -16 3q-18 0 -31 -13q-12 -12 -12 -30v-746h-341v832q0 123 87 211q88 87 211 87h22q141 0 241 -100l6 -6h1l13 -15l6 -8l562 -674q3 -3 7 -4q8 -3 17 -3q17 0 30 12
q13 13 13 30v747h341v-832q0 -124 -88 -211q-87 -87 -211 -87h-21z" />
    <glyph glyph-name="O" unicode="O" 
d="M981 256q70 0 121 49q50 51 50 121v256q0 71 -50 121q-51 50 -121 50h-469q-71 0 -121 -50t-50 -121v-256q0 -70 50 -121q50 -49 121 -49h469zM341 0q-142 0 -241 100q-100 100 -100 241v427q0 141 100 241t241 100h811q141 0 241 -100t100 -241v-427q0 -142 -100 -241
q-100 -100 -241 -100h-811z" />
    <glyph glyph-name="P" unicode="P" horiz-adv-x="1557" 
d="M981 682q35 0 60 25t25 61q0 35 -25 60t-60 25h-640v-171h640zM0 0v1109h1237q70 0 121 -50q50 -50 50 -121v-341q0 -71 -50 -121q-51 -50 -121 -50h-896v-426h-341z" />
    <glyph glyph-name="Q" unicode="Q" 
d="M981 256q70 0 121 49q50 51 50 121v256q0 71 -50 121q-51 50 -121 50h-469q-71 0 -121 -50t-50 -121v-256q0 -70 50 -121q50 -49 121 -49h106v170h256v-170h107zM618 -170v170h-277q-142 0 -241 100q-100 100 -100 241v427q0 141 100 241t241 100h811q141 0 241 -100
t100 -241v-427q0 -142 -100 -241q-100 -100 -241 -100h-278v-170h-256z" />
    <glyph glyph-name="R" unicode="R" horiz-adv-x="1578" 
d="M981 682q35 0 60 25t25 61q0 35 -25 60t-60 25h-640v-171h640zM0 0v1109h1237q70 0 121 -50q50 -50 50 -121v-256q0 -70 -50 -121q-51 -49 -121 -49q71 0 120 -51q23 -22 36 -49q9 -19 17 -43q9 -29 16 -62l88 -307h-341l-96 382q-6 10 -14 19q-26 25 -61 25h-661v-426
h-341z" />
    <glyph glyph-name="S" unicode="S" horiz-adv-x="1536" 
d="M-42 0v256h1002q35 0 60 24q25 26 25 61t-25 60t-60 25h-790q-70 0 -121 50q-49 50 -49 121v341q0 70 49 121q51 50 121 50h1152v-256h-896q-35 0 -60 -25t-25 -60q0 -36 25 -61t60 -25h790q70 0 120 -50t50 -120v-342q0 -70 -50 -121q-50 -49 -120 -49h-1258z" />
    <glyph glyph-name="T" unicode="T" horiz-adv-x="1450" 
d="M469 0v853h-554v256h1450v-256h-555v-853h-341z" />
    <glyph glyph-name="U" unicode="U" horiz-adv-x="1578" 
d="M341 0q-142 0 -241 100q-100 100 -100 241v768h341v-683q0 -70 50 -121q50 -49 121 -49h384q70 0 120 49q50 51 50 121v683h342v-768q0 -142 -101 -241q-100 -100 -241 -100h-725z" />
    <glyph glyph-name="V" unicode="V" horiz-adv-x="1706" 
d="M768 -21q-142 0 -242 99q-43 44 -68 95l-534 936h374l183 -320l265 -464q9 -5 22 -5q12 0 21 5l448 784h375l-535 -936q-25 -51 -68 -95q-100 -99 -241 -99v0z" />
    <glyph glyph-name="W" unicode="W" horiz-adv-x="2240" 
d="M576 -21q-124 0 -212 87q-32 32 -52 69q-15 21 -27 57l-366 917h358l289 -723l1 1q6 -12 13 -18q8 -7 17 -7q18 0 30 13q3 3 6 7l208 727h387l207 -727q3 -4 6 -7q13 -13 31 -13q8 0 16 7q8 6 14 18v-1l290 723h358l-367 -917q-12 -36 -27 -57q-20 -37 -52 -69
q-88 -87 -211 -87q-142 0 -241 99q-62 62 -86 139q-3 9 -7 19q-8 24 -14 51l-111 390l-111 -390q-6 -27 -14 -51q-3 -10 -7 -18q-23 -78 -85 -140q-100 -99 -241 -99v0z" />
    <glyph glyph-name="X" unicode="X" horiz-adv-x="1600" 
d="M-128 0l576 576l-533 533h426l384 -384l384 384h405l-533 -533l576 -576h-427l-416 416l-416 -416h-426z" />
    <glyph glyph-name="Y" unicode="Y" horiz-adv-x="1536" 
d="M512 0v426h-192q-142 0 -242 100q-99 100 -99 242v341h341v-256q0 -71 49 -121q51 -50 121 -50h384q71 0 121 50t50 121v256h341v-341q0 -142 -100 -242t-241 -100h-192v-426h-341z" />
    <glyph glyph-name="Z" unicode="Z" horiz-adv-x="1472" 
d="M-42 0v256l795 597h-753v256h1301v-256l-797 -597h818v-256h-1364z" />
    <glyph glyph-name="bracketleft" unicode="[" horiz-adv-x="682" 
d="M0 -256v1621h597v-256h-256v-1109h256v-256h-597z" />
    <glyph glyph-name="backslash" unicode="\" horiz-adv-x="853" 
d="M533 0l-554 1109h170l555 -1109h-171z" />
    <glyph glyph-name="bracketright" unicode="]" horiz-adv-x="682" 
d="M-85 -256v256h255v1109h-255v256h597v-1621h-597z" />
    <glyph glyph-name="asciicircum" unicode="^" horiz-adv-x="682" 
d="M0 853l128 256h256l128 -256h-86l-170 171l-171 -171h-85z" />
    <glyph glyph-name="underscore" unicode="_" horiz-adv-x="1536" 
d="M0 -341v171h1365v-171h-1365z" />
    <glyph glyph-name="grave" unicode="`" horiz-adv-x="512" 
d="M256 853l-256 256h213l128 -256h-85z" />
    <glyph glyph-name="a" unicode="a" 
d="M1024 256q35 0 60 24q25 26 25 61t-25 60t-60 25h-619q-35 0 -61 -25q-24 -25 -24 -60t24 -61q26 -24 61 -24h619zM149 0q-71 0 -121 49q-49 51 -49 121v341q0 71 49 121q50 50 121 50h875q70 0 120 -50q4 -3 8 -7v57q0 71 -51 121q-50 50 -120 50h-981v256h1152
q141 0 241 -100t100 -241v-768h-341v57l-8 -8q-50 -49 -120 -49h-875z" />
    <glyph glyph-name="b" unicode="b" horiz-adv-x="1557" 
d="M981 256q35 0 60 24q25 26 25 61t-25 60t-60 25h-640v-170h640zM938 682q35 0 61 25q25 25 25 61q0 35 -25 60q-26 25 -61 25h-597v-171h597zM0 0v1109h1194q71 0 121 -50t50 -121v-192q0 -70 -50 -121q-50 -49 -121 -49h43q70 0 121 -50q50 -51 50 -121v-235
q0 -70 -50 -121q-51 -49 -121 -49h-1237z" />
    <glyph glyph-name="c" unicode="c" horiz-adv-x="1365" 
d="M341 0q-142 0 -241 100q-100 100 -100 241v427q0 141 100 241t241 100h896v-256h-725q-71 0 -121 -50t-50 -121v-256q0 -70 50 -121q50 -49 121 -49h725v-256h-896z" />
    <glyph glyph-name="d" unicode="d" horiz-adv-x="1578" 
d="M896 256q70 0 120 49q50 51 50 121v256q0 71 -50 121t-120 50h-555v-597h555zM0 0v1109h1066q142 0 241 -100q101 -100 101 -241v-427q0 -142 -101 -241q-100 -100 -241 -100h-1066z" />
    <glyph glyph-name="e" unicode="e" horiz-adv-x="1642" 
d="M1152 682v86q0 35 -25 60q-26 25 -61 25h-640q-35 0 -60 -25t-25 -60v-86h811zM341 0q-142 0 -241 100q-100 100 -100 241v427q0 141 100 241t241 100h811q141 0 241 -100t100 -241v-171q0 -71 -50 -121t-121 -50h-981v-85q0 -35 25 -61q25 -24 60 -24h1046v-256h-1131z
" />
    <glyph glyph-name="f" unicode="f" horiz-adv-x="1365" 
d="M0 0v768q0 141 100 241t241 100h896v-256h-811q-35 0 -60 -25t-25 -60v-86h875v-256h-875v-426h-341z" />
    <glyph glyph-name="g" unicode="g" horiz-adv-x="1493" 
d="M341 0q-142 0 -241 100q-100 100 -100 241v427q0 141 100 241t241 100h981v-256h-810q-71 0 -121 -50t-50 -121v-256q0 -70 50 -121q50 -49 121 -49h426q35 0 61 24q25 26 25 61t-25 60q-26 25 -61 25h-298v256h384q141 0 241 -100t100 -241q0 -142 -100 -241
q-100 -100 -241 -100h-683z" />
    <glyph glyph-name="h" unicode="h" horiz-adv-x="1578" 
d="M0 0v1109h341v-427h725v427h342v-1109h-342v426h-725v-426h-341z" />
    <glyph glyph-name="i" unicode="i" horiz-adv-x="512" 
d="M0 0v1109h341v-1109h-341z" />
    <glyph glyph-name="j" unicode="j" horiz-adv-x="1066" 
d="M-85 0v256h469q70 0 120 49q50 51 50 121v683h342v-768q0 -142 -101 -241q-100 -100 -241 -100h-639z" />
    <glyph glyph-name="k" unicode="k" horiz-adv-x="1536" 
d="M0 0v1109h341v-427h149l534 427h426l-672 -538l715 -571h-469l-534 426h-149v-426h-341z" />
    <glyph glyph-name="l" unicode="l" horiz-adv-x="1322" 
d="M341 0q-142 0 -241 100q-100 100 -100 241v768h341v-683q0 -70 50 -121q50 -49 121 -49h725v-256h-896z" />
    <glyph glyph-name="m" unicode="m" horiz-adv-x="2048" 
d="M0 0v832q0 123 87 211q88 87 211 87h22q141 0 241 -100q55 -55 80 -123l297 -595l297 595q25 68 81 123q100 100 241 100h21q124 0 211 -87q88 -88 88 -211v-832h-341v704q0 17 -13 30q-13 12 -30 12q-9 0 -17 -3q-7 -3 -13 -9h-1l-367 -734h-313l-171 341l-197 393
q-6 6 -14 9t-16 3q-18 0 -31 -12q-12 -13 -12 -30v-704h-341z" />
    <glyph glyph-name="n" unicode="n" horiz-adv-x="1728" 
d="M1237 -21q-141 0 -241 99q-4 3 -7 7h-1l-12 15q-4 4 -7 8l-408 489l-154 185q-3 2 -7 4q-8 3 -16 3q-18 0 -31 -13q-12 -12 -12 -30v-746h-341v832q0 123 87 211q88 87 211 87h22q141 0 241 -100l6 -6h1l13 -15l6 -8l562 -674q3 -3 7 -4q8 -3 17 -3q17 0 30 12
q13 13 13 30v747h341v-832q0 -124 -88 -211q-87 -87 -211 -87h-21z" />
    <glyph glyph-name="o" unicode="o" 
d="M981 256q70 0 121 49q50 51 50 121v256q0 71 -50 121q-51 50 -121 50h-469q-71 0 -121 -50t-50 -121v-256q0 -70 50 -121q50 -49 121 -49h469zM341 0q-142 0 -241 100q-100 100 -100 241v427q0 141 100 241t241 100h811q141 0 241 -100t100 -241v-427q0 -142 -100 -241
q-100 -100 -241 -100h-811z" />
    <glyph glyph-name="p" unicode="p" horiz-adv-x="1557" 
d="M981 682q35 0 60 25t25 61q0 35 -25 60t-60 25h-640v-171h640zM0 0v1109h1237q70 0 121 -50q50 -50 50 -121v-341q0 -71 -50 -121q-51 -50 -121 -50h-896v-426h-341z" />
    <glyph glyph-name="q" unicode="q" 
d="M981 256q70 0 121 49q50 51 50 121v256q0 71 -50 121q-51 50 -121 50h-469q-71 0 -121 -50t-50 -121v-256q0 -70 50 -121q50 -49 121 -49h106v170h256v-170h107zM618 -170v170h-277q-142 0 -241 100q-100 100 -100 241v427q0 141 100 241t241 100h811q141 0 241 -100
t100 -241v-427q0 -142 -100 -241q-100 -100 -241 -100h-278v-170h-256z" />
    <glyph glyph-name="r" unicode="r" horiz-adv-x="1578" 
d="M981 682q35 0 60 25t25 61q0 35 -25 60t-60 25h-640v-171h640zM1472 -341l-768 767h-363v-426h-341v1109h1237q70 0 121 -50q50 -50 50 -121v-341q0 -71 -50 -121q-51 -50 -121 -50h-107l768 -767h-426z" />
    <glyph glyph-name="s" unicode="s" horiz-adv-x="1536" 
d="M-42 0v256h1002q35 0 60 24q25 26 25 61t-25 60t-60 25h-790q-70 0 -121 50q-49 50 -49 121v341q0 70 49 121q51 50 121 50h1152v-256h-896q-35 0 -60 -25t-25 -60q0 -36 25 -61t60 -25h790q70 0 120 -50t50 -120v-342q0 -70 -50 -121q-50 -49 -120 -49h-1258z" />
    <glyph glyph-name="t" unicode="t" horiz-adv-x="1450" 
d="M469 0v853h-554v256h1450v-256h-555v-853h-341z" />
    <glyph glyph-name="u" unicode="u" horiz-adv-x="1578" 
d="M341 0q-142 0 -241 100q-100 100 -100 241v768h341v-683q0 -70 50 -121q50 -49 121 -49h384q70 0 120 49q50 51 50 121v683h342v-768q0 -142 -101 -241q-100 -100 -241 -100h-725z" />
    <glyph glyph-name="v" unicode="v" horiz-adv-x="1706" 
d="M768 -21q-142 0 -242 99q-43 44 -68 95l-534 936h374l183 -320l265 -464q9 -5 22 -5q12 0 21 5l448 784h375l-535 -936q-25 -51 -68 -95q-100 -99 -241 -99v0z" />
    <glyph glyph-name="w" unicode="w" horiz-adv-x="2240" 
d="M576 -21q-124 0 -212 87q-32 32 -52 69q-15 21 -27 57l-366 917h358l289 -723l1 1q6 -12 13 -18q8 -7 17 -7q18 0 30 13q3 3 6 7l208 727h387l207 -727q3 -4 6 -7q13 -13 31 -13q8 0 16 7q8 6 14 18v-1l290 723h358l-367 -917q-12 -36 -27 -57q-20 -37 -52 -69
q-88 -87 -211 -87q-142 0 -241 99q-62 62 -86 139q-3 9 -7 19q-8 24 -14 51l-111 390l-111 -390q-6 -27 -14 -51q-3 -10 -7 -18q-23 -78 -85 -140q-100 -99 -241 -99v0z" />
    <glyph glyph-name="x" unicode="x" horiz-adv-x="1600" 
d="M-128 0l576 576l-533 533h426l384 -384l384 384h405l-533 -533l576 -576h-427l-416 416l-416 -416h-426z" />
    <glyph glyph-name="y" unicode="y" horiz-adv-x="1536" 
d="M512 0v426h-192q-142 0 -242 100q-99 100 -99 242v341h341v-256q0 -71 49 -121q51 -50 121 -50h384q71 0 121 50t50 121v256h341v-341q0 -142 -100 -242t-241 -100h-192v-426h-341z" />
    <glyph glyph-name="z" unicode="z" horiz-adv-x="1472" 
d="M-42 0v256l795 597h-753v256h1301v-256l-797 -597h818v-256h-1364z" />
    <glyph glyph-name="braceleft" unicode="{" horiz-adv-x="810" 
d="M469 -256q-142 0 -241 101q-100 100 -100 240v171q0 70 -50 120q-51 50 -120 50v256q69 0 120 50q50 50 50 121v171q0 141 100 241t241 100h256v-256h-85q-71 0 -121 -50t-50 -121v-85q0 -142 -100 -241q-35 -35 -74 -58q39 -22 74 -57q100 -100 100 -241v-86
q0 -70 50 -121q50 -49 121 -49h85v-256h-256z" />
    <glyph glyph-name="bar" unicode="|" horiz-adv-x="341" 
d="M0 -341v2047h170v-2047h-170z" />
    <glyph glyph-name="braceright" unicode="}" horiz-adv-x="810" 
d="M-85 -256v256h85q70 0 120 49q50 51 50 121v86q0 141 100 241q35 34 74 57q-39 23 -74 58q-100 100 -100 241v85q0 71 -50 121t-120 50h-85v256h255q142 0 241 -100q101 -100 101 -241v-171q0 -71 49 -121q51 -50 121 -50v-256q-70 0 -121 -50q-49 -50 -49 -120v-171
q0 -141 -101 -240q-100 -101 -241 -101h-255z" />
    <glyph glyph-name="asciitilde" unicode="~" horiz-adv-x="853" 
d="M0 426v107q0 62 43 105q44 44 106 44q30 0 58 -12l6 -2l277 -92h22q17 0 30 12q12 13 12 30v64h128v-106q0 -62 -44 -106q-43 -44 -105 -44q-31 0 -58 12q-3 1 -5 2l-278 93h-22q-17 0 -30 -13q-12 -12 -12 -30v-64h-128z" />
    <glyph glyph-name="cent" unicode="&#xa2;" horiz-adv-x="1365" 
d="M554 256v597h-42q-71 0 -121 -50t-50 -121v-256q0 -70 50 -121q50 -49 121 -49h42zM554 -170v170h-213q-142 0 -241 100q-100 100 -100 241v427q0 141 100 241t241 100h213v171h256v-171h427v-256h-427v-597h427v-256h-427v-170h-256z" />
    <glyph glyph-name="sterling" unicode="&#xa3;" horiz-adv-x="1322" 
d="M-42 0v256h170v213h-170v171h170v128q0 141 100 241t241 100h640v-256h-555q-35 0 -60 -25t-25 -60v-128h341v-171h-341v-213h725v-256h-1236z" />
    <glyph glyph-name="copyright" unicode="&#xa9;" horiz-adv-x="1450" 
d="M512 277q-71 0 -121 50t-50 121v213q0 71 50 120q50 51 121 51h426v-128h-341q-35 0 -61 -25q-24 -26 -24 -61v-128q0 -35 24 -60q26 -25 61 -25h341v-128h-426zM938 128q71 0 121 50t50 120v512q0 71 -50 121t-121 50h-597q-71 0 -121 -50t-50 -121v-512q0 -70 50 -120
t121 -50h597zM341 -42q-141 0 -241 99q-100 100 -100 241v512q0 141 100 241q100 101 241 101h597q141 0 241 -101q101 -100 101 -241v-512q0 -141 -101 -241q-100 -99 -241 -99h-597z" />
    <glyph glyph-name="guillemotleft" unicode="&#xab;" horiz-adv-x="1493" 
d="M981 426v320q0 18 -13 30q-12 13 -30 13q-9 0 -16 -3l-8 -4l-296 -356h363zM-99 0l639 768l194 233q4 4 7 8l12 15h1q4 3 7 6q100 100 241 100h22q123 0 211 -87q87 -88 87 -211v-832h-341v256h-505l-213 -256h-362z" />
    <glyph glyph-name="guillemotright" unicode="&#xbb;" horiz-adv-x="1493" 
d="M704 426l-143 171l-154 185q-3 2 -7 4q-8 3 -16 3q-18 0 -31 -13q-12 -12 -12 -30v-320h363zM0 0v832q0 123 87 211q88 87 211 87h22q141 0 241 -100l6 -6h1l13 -15l6 -8l835 -1001h-363l-213 256h-505v-256h-341z" />
    <glyph glyph-name="Agrave" unicode="&#xc0;" horiz-adv-x="1706" 
d="M993 426l-204 357q-9 6 -21 6q-13 0 -22 -6l-204 -357h451zM-76 0l534 936q25 51 68 94q100 100 242 100q141 0 241 -100q43 -43 68 -94l535 -936h-375l-146 256h-647l-146 -256h-374zM768 1280l-256 256h213l128 -256h-85z" />
    <glyph glyph-name="Aacute" unicode="&#xc1;" horiz-adv-x="1706" 
d="M993 426l-204 357q-9 6 -21 6q-13 0 -22 -6l-204 -357h451zM-76 0l534 936q25 51 68 94q100 100 242 100q141 0 241 -100q43 -43 68 -94l535 -936h-375l-146 256h-647l-146 -256h-374zM682 1280l128 256h214l-256 -256h-86z" />
    <glyph glyph-name="Acircumflex" unicode="&#xc2;" horiz-adv-x="1706" 
d="M993 426l-204 357q-9 6 -21 6q-13 0 -22 -6l-204 -357h451zM-76 0l534 936q25 51 68 94q100 100 242 100q141 0 241 -100q43 -43 68 -94l535 -936h-375l-146 256h-647l-146 -256h-374zM512 1280l128 256h256l128 -256h-86l-170 170l-171 -170h-85z" />
    <glyph glyph-name="Atilde" unicode="&#xc3;" horiz-adv-x="1706" 
d="M993 426l-204 357q-9 6 -21 6q-13 0 -22 -6l-204 -357h451zM-76 0l534 936q25 51 68 94q100 100 242 100q141 0 241 -100q43 -43 68 -94l535 -936h-375l-146 256h-647l-146 -256h-374zM426 1280v106q0 62 44 106t106 44q30 0 58 -12q3 -2 6 -3l277 -92h21q18 0 30 12
q13 13 13 31v64h128v-107q0 -62 -44 -106q-44 -43 -105 -43q-31 0 -59 11l-4 2l-279 93h-21q-18 0 -30 -12q-13 -13 -13 -30v-64h-128z" />
    <glyph glyph-name="Adieresis" unicode="&#xc4;" horiz-adv-x="1706" 
d="M993 426l-204 357q-9 6 -21 6q-13 0 -22 -6l-204 -357h451zM-76 0l534 936q25 51 68 94q100 100 242 100q141 0 241 -100q43 -43 68 -94l535 -936h-375l-146 256h-647l-146 -256h-374zM384 1280v256h256v-256h-256zM896 1280v256h256v-256h-256z" />
    <glyph glyph-name="Aring" unicode="&#xc5;" horiz-adv-x="1706" 
d="M993 426l-204 357q-9 6 -21 6q-13 0 -22 -6l-204 -357h451zM-76 0l534 936q25 51 68 94q100 100 242 100q141 0 241 -100q43 -43 68 -94l535 -936h-375l-146 256h-647l-146 -256h-374zM768 1322q35 0 60 25t25 61q0 35 -25 60t-60 25q-36 0 -61 -25t-25 -60q0 -36 25 -61
t61 -25v0zM768 1237q-71 0 -121 50t-50 121q0 70 50 120t121 50q70 0 120 -50t50 -120q0 -71 -50 -121t-120 -50v0z" />
    <glyph glyph-name="AE" unicode="&#xc6;" horiz-adv-x="2368" 
d="M981 426v320q0 18 -13 30q-12 13 -30 13q-9 0 -16 -3l-8 -4l-296 -356h363zM-99 0l639 768l150 180q21 32 50 61q100 100 241 100q92 0 164 -49q79 49 177 49h896v-256h-810q-36 0 -61 -25t-25 -60v-86h875v-256h-875v-85q0 -35 25 -61q25 -24 61 -24h832v-256h-918
q-141 0 -241 100q-69 68 -90 156h-515l-213 -256h-362z" />
    <glyph glyph-name="Ccedilla" unicode="&#xc7;" horiz-adv-x="1365" 
d="M469 -341v171h85q35 0 61 25q25 25 25 60t-25 61q-26 24 -61 24h-213q-142 0 -241 100q-100 100 -100 241v427q0 141 100 241t241 100h896v-256h-725q-71 0 -121 -50t-50 -121v-256q0 -70 50 -121q50 -49 121 -49h725v-256h-597q70 0 120 -50t50 -120q0 -71 -50 -121
t-120 -50h-171z" />
    <glyph glyph-name="Egrave" unicode="&#xc8;" horiz-adv-x="1386" 
d="M341 0q-142 0 -241 100q-100 100 -100 241v427q0 141 100 241t241 100h896v-256h-811q-35 0 -60 -25t-25 -60v-86h875v-256h-875v-85q0 -35 25 -61q25 -24 60 -24h832v-256h-917zM661 1280l-256 256h213l128 -256h-85z" />
    <glyph glyph-name="Eacute" unicode="&#xc9;" horiz-adv-x="1386" 
d="M341 0q-142 0 -241 100q-100 100 -100 241v427q0 141 100 241t241 100h896v-256h-811q-35 0 -60 -25t-25 -60v-86h875v-256h-875v-85q0 -35 25 -61q25 -24 60 -24h832v-256h-917zM576 1280l128 256h213l-256 -256h-85z" />
    <glyph glyph-name="Ecircumflex" unicode="&#xca;" horiz-adv-x="1386" 
d="M341 0q-142 0 -241 100q-100 100 -100 241v427q0 141 100 241t241 100h896v-256h-811q-35 0 -60 -25t-25 -60v-86h875v-256h-875v-85q0 -35 25 -61q25 -24 60 -24h832v-256h-917zM405 1280l128 256h256l128 -256h-85l-171 170l-171 -170h-85z" />
    <glyph glyph-name="Edieresis" unicode="&#xcb;" horiz-adv-x="1386" 
d="M341 0q-142 0 -241 100q-100 100 -100 241v427q0 141 100 241t241 100h896v-256h-811q-35 0 -60 -25t-25 -60v-86h875v-256h-875v-85q0 -35 25 -61q25 -24 60 -24h832v-256h-917zM277 1280v256h256v-256h-256zM789 1280v256h256v-256h-256z" />
    <glyph glyph-name="Igrave" unicode="&#xcc;" horiz-adv-x="512" 
d="M0 0v1109h341v-1109h-341zM170 1280l-255 256h213l128 -256h-86z" />
    <glyph glyph-name="Iacute" unicode="&#xcd;" horiz-adv-x="512" 
d="M0 0v1109h341v-1109h-341zM85 1280l128 256h213l-256 -256h-85z" />
    <glyph glyph-name="Icircumflex" unicode="&#xce;" horiz-adv-x="512" 
d="M0 0v1109h341v-1109h-341zM-85 1280l127 256h256l128 -256h-85l-171 170l-170 -170h-85z" />
    <glyph glyph-name="Idieresis" unicode="&#xcf;" horiz-adv-x="512" 
d="M0 0v1109h341v-1109h-341zM-213 1280v256h255v-256h-255zM298 1280v256h256v-256h-256z" />
    <glyph glyph-name="Ntilde" unicode="&#xd1;" horiz-adv-x="1728" 
d="M1237 -21q-141 0 -241 99q-4 3 -7 7h-1l-12 15q-4 4 -7 8l-408 489l-154 185q-3 2 -7 4q-8 3 -16 3q-18 0 -31 -13q-12 -12 -12 -30v-746h-341v832q0 123 87 211q88 87 211 87h22q141 0 241 -100l6 -6h1l13 -15l6 -8l562 -674q3 -3 7 -4q8 -3 17 -3q17 0 30 12
q13 13 13 30v747h341v-832q0 -124 -88 -211q-87 -87 -211 -87h-21zM448 1280v106q0 62 43 106q44 44 106 44q30 0 58 -12q3 -2 6 -3l277 -92h22q17 0 30 12q12 13 12 31v64h128v-107q0 -62 -44 -106q-43 -43 -105 -43q-31 0 -58 11q-3 1 -5 2l-278 93h-22q-17 0 -30 -12
q-12 -13 -12 -30v-64h-128z" />
    <glyph glyph-name="Ograve" unicode="&#xd2;" 
d="M981 256q70 0 121 49q50 51 50 121v256q0 71 -50 121q-51 50 -121 50h-469q-71 0 -121 -50t-50 -121v-256q0 -70 50 -121q50 -49 121 -49h469zM341 0q-142 0 -241 100q-100 100 -100 241v427q0 141 100 241t241 100h811q141 0 241 -100t100 -241v-427q0 -142 -100 -241
q-100 -100 -241 -100h-811zM746 1280l-256 256h214l128 -256h-86z" />
    <glyph glyph-name="Oacute" unicode="&#xd3;" 
d="M981 256q70 0 121 49q50 51 50 121v256q0 71 -50 121q-51 50 -121 50h-469q-71 0 -121 -50t-50 -121v-256q0 -70 50 -121q50 -49 121 -49h469zM341 0q-142 0 -241 100q-100 100 -100 241v427q0 141 100 241t241 100h811q141 0 241 -100t100 -241v-427q0 -142 -100 -241
q-100 -100 -241 -100h-811zM661 1280l128 256h213l-256 -256h-85z" />
    <glyph glyph-name="Ocircumflex" unicode="&#xd4;" 
d="M981 256q70 0 121 49q50 51 50 121v256q0 71 -50 121q-51 50 -121 50h-469q-71 0 -121 -50t-50 -121v-256q0 -70 50 -121q50 -49 121 -49h469zM341 0q-142 0 -241 100q-100 100 -100 241v427q0 141 100 241t241 100h811q141 0 241 -100t100 -241v-427q0 -142 -100 -241
q-100 -100 -241 -100h-811zM490 1280l128 256h256l128 -256h-85l-171 170l-170 -170h-86z" />
    <glyph glyph-name="Otilde" unicode="&#xd5;" 
d="M981 256q70 0 121 49q50 51 50 121v256q0 71 -50 121q-51 50 -121 50h-469q-71 0 -121 -50t-50 -121v-256q0 -70 50 -121q50 -49 121 -49h469zM341 0q-142 0 -241 100q-100 100 -100 241v427q0 141 100 241t241 100h811q141 0 241 -100t100 -241v-427q0 -142 -100 -241
q-100 -100 -241 -100h-811zM405 1280v106q0 62 44 106q43 44 105 44q31 0 58 -12q3 -2 6 -3l278 -92h21q17 0 30 12q13 13 13 31v64h128v-107q0 -62 -44 -106q-44 -43 -106 -43q-30 0 -58 11q-2 1 -5 2l-278 93h-21q-18 0 -31 -12q-12 -13 -12 -30v-64h-128z" />
    <glyph glyph-name="Odieresis" unicode="&#xd6;" 
d="M981 256q70 0 121 49q50 51 50 121v256q0 71 -50 121q-51 50 -121 50h-469q-71 0 -121 -50t-50 -121v-256q0 -70 50 -121q50 -49 121 -49h469zM341 0q-142 0 -241 100q-100 100 -100 241v427q0 141 100 241t241 100h811q141 0 241 -100t100 -241v-427q0 -142 -100 -241
q-100 -100 -241 -100h-811zM362 1280v256h256v-256h-256zM874 1280v256h256v-256h-256z" />
    <glyph glyph-name="Oslash" unicode="&#xd8;" 
d="M512 256l298 597h-298q-71 0 -121 -50t-50 -121v-256q0 -70 50 -121q50 -49 121 -49v0zM981 256q70 0 121 49q50 51 50 121v256q0 71 -50 121q-51 50 -121 50l-299 -597h299zM298 -170l86 170h-43q-142 0 -241 100q-100 100 -100 241v427q0 141 100 241t241 100h597
l86 171h170l-85 -171h43q141 0 241 -100t100 -241v-427q0 -142 -100 -241q-100 -100 -241 -100h-598l-85 -170h-171z" />
    <glyph glyph-name="Ugrave" unicode="&#xd9;" horiz-adv-x="1578" 
d="M341 0q-142 0 -241 100q-100 100 -100 241v768h341v-683q0 -70 50 -121q50 -49 121 -49h384q70 0 120 49q50 51 50 121v683h342v-768q0 -142 -101 -241q-100 -100 -241 -100h-725zM704 1280l-256 256h213l128 -256h-85z" />
    <glyph glyph-name="Uacute" unicode="&#xda;" horiz-adv-x="1578" 
d="M341 0q-142 0 -241 100q-100 100 -100 241v768h341v-683q0 -70 50 -121q50 -49 121 -49h384q70 0 120 49q50 51 50 121v683h342v-768q0 -142 -101 -241q-100 -100 -241 -100h-725zM618 1280l128 256h214l-256 -256h-86z" />
    <glyph glyph-name="Ucircumflex" unicode="&#xdb;" horiz-adv-x="1578" 
d="M341 0q-142 0 -241 100q-100 100 -100 241v768h341v-683q0 -70 50 -121q50 -49 121 -49h384q70 0 120 49q50 51 50 121v683h342v-768q0 -142 -101 -241q-100 -100 -241 -100h-725zM448 1280l128 256h256l128 -256h-86l-170 170l-171 -170h-85z" />
    <glyph glyph-name="Udieresis" unicode="&#xdc;" horiz-adv-x="1578" 
d="M341 0q-142 0 -241 100q-100 100 -100 241v768h341v-683q0 -70 50 -121q50 -49 121 -49h384q70 0 120 49q50 51 50 121v683h342v-768q0 -142 -101 -241q-100 -100 -241 -100h-725zM320 1280v256h256v-256h-256zM832 1280v256h256v-256h-256z" />
    <glyph glyph-name="Yacute" unicode="&#xdd;" horiz-adv-x="1536" 
d="M512 0v426h-192q-142 0 -242 100q-99 100 -99 242v341h341v-256q0 -71 49 -121q51 -50 121 -50h384q71 0 121 50t50 121v256h341v-341q0 -142 -100 -242t-241 -100h-192v-426h-341zM597 1280l128 256h213l-256 -256h-85z" />
    <glyph glyph-name="germandbls" unicode="&#xdf;" horiz-adv-x="1642" 
d="M0 0v768q0 141 100 241t241 100h896q70 0 121 -50q50 -50 50 -121v-192q0 -70 -50 -121q-51 -49 -121 -49h85q71 0 121 -50q50 -51 50 -121v-235q0 -70 -50 -121q-50 -49 -121 -49h-810v256h554q35 0 61 24q25 26 25 61t-25 60q-26 25 -61 25h-554v256h469q35 0 60 25
t25 61q0 35 -25 60t-60 25h-469q-71 0 -121 -50t-50 -121v-682h-341z" />
    <glyph glyph-name="agrave" unicode="&#xe0;" 
d="M1024 256q35 0 60 24q25 26 25 61t-25 60t-60 25h-619q-35 0 -61 -25q-24 -25 -24 -60t24 -61q26 -24 61 -24h619zM149 0q-71 0 -121 49q-49 51 -49 121v341q0 71 49 121q50 50 121 50h875q70 0 120 -50q4 -3 8 -7v57q0 71 -51 121q-50 50 -120 50h-981v256h1152
q141 0 241 -100t100 -241v-768h-341v57l-8 -8q-50 -49 -120 -49h-875zM704 1280l-256 256h213l128 -256h-85z" />
    <glyph glyph-name="aacute" unicode="&#xe1;" 
d="M1024 256q35 0 60 24q25 26 25 61t-25 60t-60 25h-619q-35 0 -61 -25q-24 -25 -24 -60t24 -61q26 -24 61 -24h619zM149 0q-71 0 -121 49q-49 51 -49 121v341q0 71 49 121q50 50 121 50h875q70 0 120 -50q4 -3 8 -7v57q0 71 -51 121q-50 50 -120 50h-981v256h1152
q141 0 241 -100t100 -241v-768h-341v57l-8 -8q-50 -49 -120 -49h-875zM618 1280l128 256h214l-256 -256h-86z" />
    <glyph glyph-name="acircumflex" unicode="&#xe2;" 
d="M1024 256q35 0 60 24q25 26 25 61t-25 60t-60 25h-619q-35 0 -61 -25q-24 -25 -24 -60t24 -61q26 -24 61 -24h619zM149 0q-71 0 -121 49q-49 51 -49 121v341q0 71 49 121q50 50 121 50h875q70 0 120 -50q4 -3 8 -7v57q0 71 -51 121q-50 50 -120 50h-981v256h1152
q141 0 241 -100t100 -241v-768h-341v57l-8 -8q-50 -49 -120 -49h-875zM448 1280l128 256h256l128 -256h-86l-170 170l-171 -170h-85z" />
    <glyph glyph-name="atilde" unicode="&#xe3;" 
d="M1024 256q35 0 60 24q25 26 25 61t-25 60t-60 25h-619q-35 0 -61 -25q-24 -25 -24 -60t24 -61q26 -24 61 -24h619zM149 0q-71 0 -121 49q-49 51 -49 121v341q0 71 49 121q50 50 121 50h875q70 0 120 -50q4 -3 8 -7v57q0 71 -51 121q-50 50 -120 50h-981v256h1152
q141 0 241 -100t100 -241v-768h-341v57l-8 -8q-50 -49 -120 -49h-875zM362 1280v106q0 62 44 106t106 44q30 0 58 -12q3 -2 6 -3l277 -92h21q18 0 30 12q13 13 13 31v64h128v-107q0 -62 -44 -106q-44 -43 -105 -43q-31 0 -59 11l-4 2l-279 93h-21q-18 0 -30 -12
q-13 -13 -13 -30v-64h-128z" />
    <glyph glyph-name="adieresis" unicode="&#xe4;" 
d="M1024 256q35 0 60 24q25 26 25 61t-25 60t-60 25h-619q-35 0 -61 -25q-24 -25 -24 -60t24 -61q26 -24 61 -24h619zM149 0q-71 0 -121 49q-49 51 -49 121v341q0 71 49 121q50 50 121 50h875q70 0 120 -50q4 -3 8 -7v57q0 71 -51 121q-50 50 -120 50h-981v256h1152
q141 0 241 -100t100 -241v-768h-341v57l-8 -8q-50 -49 -120 -49h-875zM320 1280v256h256v-256h-256zM832 1280v256h256v-256h-256z" />
    <glyph glyph-name="aring" unicode="&#xe5;" 
d="M1024 256q35 0 60 24q25 26 25 61t-25 60t-60 25h-619q-35 0 -61 -25q-24 -25 -24 -60t24 -61q26 -24 61 -24h619zM149 0q-71 0 -121 49q-49 51 -49 121v341q0 71 49 121q50 50 121 50h875q70 0 120 -50q4 -3 8 -7v57q0 71 -51 121q-50 50 -120 50h-981v256h1152
q141 0 241 -100t100 -241v-768h-341v57l-8 -8q-50 -49 -120 -49h-875zM704 1322q35 0 60 25t25 61q0 35 -25 60t-60 25q-36 0 -61 -25t-25 -60q0 -36 25 -61t61 -25v0zM704 1237q-71 0 -121 50t-50 121q0 70 50 120t121 50q70 0 120 -50t50 -120q0 -71 -50 -121t-120 -50v0z
" />
    <glyph glyph-name="ae" unicode="&#xe6;" horiz-adv-x="2794" 
d="M1024 256q35 0 60 24q25 26 25 61t-25 60t-60 25h-619q-35 0 -61 -25q-24 -25 -24 -60t24 -61q26 -24 61 -24h619zM2304 682v86q0 35 -25 60q-26 25 -61 25h-640q-35 0 -60 -25t-25 -60v-86h811zM149 0q-71 0 -121 49q-49 51 -49 121v341q0 71 49 121q50 50 121 50h875
q70 0 120 -50q4 -3 8 -7v57q0 71 -51 121q-50 50 -120 50h-981v256h1066q141 0 241 -100q8 -8 15 -16q7 8 15 16q100 100 241 100h726q141 0 241 -100t100 -241v-171q0 -71 -50 -121t-121 -50h-981v-85q0 -35 25 -60t60 -25h1046v-256h-1046q-141 0 -241 100q-8 7 -15 15
q-7 -8 -15 -15q-100 -100 -241 -100h-917z" />
    <glyph glyph-name="ccedilla" unicode="&#xe7;" horiz-adv-x="1365" 
d="M469 -341v171h85q35 0 61 25q25 25 25 60t-25 61q-26 24 -61 24h-213q-142 0 -241 100q-100 100 -100 241v427q0 141 100 241t241 100h896v-256h-725q-71 0 -121 -50t-50 -121v-256q0 -70 50 -121q50 -49 121 -49h725v-256h-597q70 0 120 -50t50 -120q0 -71 -50 -121
t-120 -50h-171z" />
    <glyph glyph-name="egrave" unicode="&#xe8;" horiz-adv-x="1642" 
d="M1152 682v86q0 35 -25 60q-26 25 -61 25h-640q-35 0 -60 -25t-25 -60v-86h811zM341 0q-142 0 -241 100q-100 100 -100 241v427q0 141 100 241t241 100h811q141 0 241 -100t100 -241v-171q0 -71 -50 -121t-121 -50h-981v-85q0 -35 25 -61q25 -24 60 -24h1046v-256h-1131z
M746 1280l-256 256h214l128 -256h-86z" />
    <glyph glyph-name="eacute" unicode="&#xe9;" horiz-adv-x="1642" 
d="M1152 682v86q0 35 -25 60q-26 25 -61 25h-640q-35 0 -60 -25t-25 -60v-86h811zM341 0q-142 0 -241 100q-100 100 -100 241v427q0 141 100 241t241 100h811q141 0 241 -100t100 -241v-171q0 -71 -50 -121t-121 -50h-981v-85q0 -35 25 -61q25 -24 60 -24h1046v-256h-1131z
M661 1280l128 256h213l-256 -256h-85z" />
    <glyph glyph-name="ecircumflex" unicode="&#xea;" horiz-adv-x="1642" 
d="M1152 682v86q0 35 -25 60q-26 25 -61 25h-640q-35 0 -60 -25t-25 -60v-86h811zM341 0q-142 0 -241 100q-100 100 -100 241v427q0 141 100 241t241 100h811q141 0 241 -100t100 -241v-171q0 -71 -50 -121t-121 -50h-981v-85q0 -35 25 -61q25 -24 60 -24h1046v-256h-1131z
M490 1280l128 256h256l128 -256h-85l-171 170l-170 -170h-86z" />
    <glyph glyph-name="edieresis" unicode="&#xeb;" horiz-adv-x="1642" 
d="M1152 682v86q0 35 -25 60q-26 25 -61 25h-640q-35 0 -60 -25t-25 -60v-86h811zM341 0q-142 0 -241 100q-100 100 -100 241v427q0 141 100 241t241 100h811q141 0 241 -100t100 -241v-171q0 -71 -50 -121t-121 -50h-981v-85q0 -35 25 -61q25 -24 60 -24h1046v-256h-1131z
M362 1280v256h256v-256h-256zM874 1280v256h256v-256h-256z" />
    <glyph glyph-name="igrave" unicode="&#xec;" horiz-adv-x="512" 
d="M0 0v1109h341v-1109h-341zM170 1280l-255 256h213l128 -256h-86z" />
    <glyph glyph-name="iacute" unicode="&#xed;" horiz-adv-x="512" 
d="M0 0v1109h341v-1109h-341zM85 1280l128 256h213l-256 -256h-85z" />
    <glyph glyph-name="icircumflex" unicode="&#xee;" horiz-adv-x="512" 
d="M0 0v1109h341v-1109h-341zM-85 1280l127 256h256l128 -256h-85l-171 170l-170 -170h-85z" />
    <glyph glyph-name="idieresis" unicode="&#xef;" horiz-adv-x="512" 
d="M0 0v1109h341v-1109h-341zM-213 1280v256h255v-256h-255zM298 1280v256h256v-256h-256z" />
    <glyph glyph-name="ntilde" unicode="&#xf1;" horiz-adv-x="1728" 
d="M1237 -21q-141 0 -241 99q-4 3 -7 7h-1l-12 15q-4 4 -7 8l-408 489l-154 185q-3 2 -7 4q-8 3 -16 3q-18 0 -31 -13q-12 -12 -12 -30v-746h-341v832q0 123 87 211q88 87 211 87h22q141 0 241 -100l6 -6h1l13 -15l6 -8l562 -674q3 -3 7 -4q8 -3 17 -3q17 0 30 12
q13 13 13 30v747h341v-832q0 -124 -88 -211q-87 -87 -211 -87h-21zM448 1280v106q0 62 43 106q44 44 106 44q30 0 58 -12q3 -2 6 -3l277 -92h22q17 0 30 12q12 13 12 31v64h128v-107q0 -62 -44 -106q-43 -43 -105 -43q-31 0 -58 11q-3 1 -5 2l-278 93h-22q-17 0 -30 -12
q-12 -13 -12 -30v-64h-128z" />
    <glyph glyph-name="ograve" unicode="&#xf2;" 
d="M981 256q70 0 121 49q50 51 50 121v256q0 71 -50 121q-51 50 -121 50h-469q-71 0 -121 -50t-50 -121v-256q0 -70 50 -121q50 -49 121 -49h469zM341 0q-142 0 -241 100q-100 100 -100 241v427q0 141 100 241t241 100h811q141 0 241 -100t100 -241v-427q0 -142 -100 -241
q-100 -100 -241 -100h-811zM746 1280l-256 256h214l128 -256h-86z" />
    <glyph glyph-name="oacute" unicode="&#xf3;" 
d="M981 256q70 0 121 49q50 51 50 121v256q0 71 -50 121q-51 50 -121 50h-469q-71 0 -121 -50t-50 -121v-256q0 -70 50 -121q50 -49 121 -49h469zM341 0q-142 0 -241 100q-100 100 -100 241v427q0 141 100 241t241 100h811q141 0 241 -100t100 -241v-427q0 -142 -100 -241
q-100 -100 -241 -100h-811zM661 1280l128 256h213l-256 -256h-85z" />
    <glyph glyph-name="ocircumflex" unicode="&#xf4;" 
d="M981 256q70 0 121 49q50 51 50 121v256q0 71 -50 121q-51 50 -121 50h-469q-71 0 -121 -50t-50 -121v-256q0 -70 50 -121q50 -49 121 -49h469zM341 0q-142 0 -241 100q-100 100 -100 241v427q0 141 100 241t241 100h811q141 0 241 -100t100 -241v-427q0 -142 -100 -241
q-100 -100 -241 -100h-811zM490 1280l128 256h256l128 -256h-85l-171 170l-170 -170h-86z" />
    <glyph glyph-name="otilde" unicode="&#xf5;" 
d="M981 256q70 0 121 49q50 51 50 121v256q0 71 -50 121q-51 50 -121 50h-469q-71 0 -121 -50t-50 -121v-256q0 -70 50 -121q50 -49 121 -49h469zM341 0q-142 0 -241 100q-100 100 -100 241v427q0 141 100 241t241 100h811q141 0 241 -100t100 -241v-427q0 -142 -100 -241
q-100 -100 -241 -100h-811zM405 1280v106q0 62 44 106q43 44 105 44q31 0 58 -12q3 -2 6 -3l278 -92h21q17 0 30 12q13 13 13 31v64h128v-107q0 -62 -44 -106q-44 -43 -106 -43q-30 0 -58 11q-2 1 -5 2l-278 93h-21q-18 0 -31 -12q-12 -13 -12 -30v-64h-128z" />
    <glyph glyph-name="odieresis" unicode="&#xf6;" 
d="M981 256q70 0 121 49q50 51 50 121v256q0 71 -50 121q-51 50 -121 50h-469q-71 0 -121 -50t-50 -121v-256q0 -70 50 -121q50 -49 121 -49h469zM341 0q-142 0 -241 100q-100 100 -100 241v427q0 141 100 241t241 100h811q141 0 241 -100t100 -241v-427q0 -142 -100 -241
q-100 -100 -241 -100h-811zM362 1280v256h256v-256h-256zM874 1280v256h256v-256h-256z" />
    <glyph glyph-name="oslash" unicode="&#xf8;" 
d="M512 256l298 597h-298q-71 0 -121 -50t-50 -121v-256q0 -70 50 -121q50 -49 121 -49v0zM981 256q70 0 121 49q50 51 50 121v256q0 71 -50 121q-51 50 -121 50l-299 -597h299zM298 -170l86 170h-43q-142 0 -241 100q-100 100 -100 241v427q0 141 100 241t241 100h597
l86 171h170l-85 -171h43q141 0 241 -100t100 -241v-427q0 -142 -100 -241q-100 -100 -241 -100h-598l-85 -170h-171z" />
    <glyph glyph-name="ugrave" unicode="&#xf9;" horiz-adv-x="1578" 
d="M341 0q-142 0 -241 100q-100 100 -100 241v768h341v-683q0 -70 50 -121q50 -49 121 -49h384q70 0 120 49q50 51 50 121v683h342v-768q0 -142 -101 -241q-100 -100 -241 -100h-725zM704 1280l-256 256h213l128 -256h-85z" />
    <glyph glyph-name="uacute" unicode="&#xfa;" horiz-adv-x="1578" 
d="M341 0q-142 0 -241 100q-100 100 -100 241v768h341v-683q0 -70 50 -121q50 -49 121 -49h384q70 0 120 49q50 51 50 121v683h342v-768q0 -142 -101 -241q-100 -100 -241 -100h-725zM618 1280l128 256h214l-256 -256h-86z" />
    <glyph glyph-name="ucircumflex" unicode="&#xfb;" horiz-adv-x="1578" 
d="M341 0q-142 0 -241 100q-100 100 -100 241v768h341v-683q0 -70 50 -121q50 -49 121 -49h384q70 0 120 49q50 51 50 121v683h342v-768q0 -142 -101 -241q-100 -100 -241 -100h-725zM448 1280l128 256h256l128 -256h-86l-170 170l-171 -170h-85z" />
    <glyph glyph-name="udieresis" unicode="&#xfc;" horiz-adv-x="1578" 
d="M341 0q-142 0 -241 100q-100 100 -100 241v768h341v-683q0 -70 50 -121q50 -49 121 -49h384q70 0 120 49q50 51 50 121v683h342v-768q0 -142 -101 -241q-100 -100 -241 -100h-725zM320 1280v256h256v-256h-256zM832 1280v256h256v-256h-256z" />
    <glyph glyph-name="yacute" unicode="&#xfd;" horiz-adv-x="1536" 
d="M512 0v426h-192q-142 0 -242 100q-99 100 -99 242v341h341v-256q0 -71 49 -121q51 -50 121 -50h384q71 0 121 50t50 121v256h341v-341q0 -142 -100 -242t-241 -100h-192v-426h-341zM597 1280l128 256h213l-256 -256h-85z" />
    <glyph glyph-name="ydieresis" unicode="&#xff;" horiz-adv-x="1536" 
d="M512 0v426h-192q-142 0 -242 100q-99 100 -99 242v341h341v-256q0 -71 49 -121q51 -50 121 -50h384q71 0 121 50t50 121v256h341v-341q0 -142 -100 -242t-241 -100h-192v-426h-341zM298 1280v256h256v-256h-256zM810 1280v256h256v-256h-256z" />
    <glyph glyph-name="Amacron" unicode="&#x100;" horiz-adv-x="341" 
 />
    <glyph glyph-name="amacron" unicode="&#x101;" horiz-adv-x="341" 
 />
    <glyph glyph-name="Abreve" unicode="&#x102;" horiz-adv-x="341" 
 />
    <glyph glyph-name="abreve" unicode="&#x103;" horiz-adv-x="341" 
 />
    <glyph glyph-name="Aogonek" unicode="&#x104;" horiz-adv-x="341" 
 />
    <glyph glyph-name="aogonek" unicode="&#x105;" horiz-adv-x="341" 
 />
    <glyph glyph-name="Cacute" unicode="&#x106;" horiz-adv-x="341" 
 />
    <glyph glyph-name="cacute" unicode="&#x107;" horiz-adv-x="341" 
 />
    <glyph glyph-name="Ccircumflex" unicode="&#x108;" horiz-adv-x="341" 
 />
    <glyph glyph-name="ccircumflex" unicode="&#x109;" horiz-adv-x="341" 
 />
    <glyph glyph-name="Cdotaccent" unicode="&#x10a;" horiz-adv-x="341" 
 />
    <glyph glyph-name="cdotaccent" unicode="&#x10b;" horiz-adv-x="341" 
 />
    <glyph glyph-name="Ccaron" unicode="&#x10c;" horiz-adv-x="341" 
 />
    <glyph glyph-name="ccaron" unicode="&#x10d;" horiz-adv-x="341" 
 />
    <glyph glyph-name="Dcaron" unicode="&#x10e;" horiz-adv-x="341" 
 />
    <glyph glyph-name="dcaron" unicode="&#x10f;" horiz-adv-x="341" 
 />
    <glyph glyph-name="OE" unicode="&#x152;" horiz-adv-x="2538" 
d="M981 256q70 0 121 49q50 51 50 121v256q0 71 -50 121q-51 50 -121 50h-469q-71 0 -121 -50t-50 -121v-256q0 -70 50 -121q50 -49 121 -49h469zM341 0q-142 0 -241 100q-100 100 -100 241v427q0 141 100 241t241 100h725q141 0 241 -100q8 -8 15 -16q7 8 15 16
q100 100 241 100h811v-256h-811q-35 0 -60 -25t-25 -60v-86h875v-256h-875v-85q0 -35 25 -60t60 -25h832v-256h-832q-141 0 -241 100q-8 7 -15 15q-7 -8 -15 -15q-100 -100 -241 -100h-725z" />
    <glyph glyph-name="oe" unicode="&#x153;" horiz-adv-x="2794" 
d="M981 256q70 0 121 49q50 51 50 121v256q0 71 -50 121q-51 50 -121 50h-469q-71 0 -121 -50t-50 -121v-256q0 -70 50 -121q50 -49 121 -49h469zM2304 682v86q0 35 -25 60q-26 25 -61 25h-640q-35 0 -60 -25t-25 -60v-86h811zM341 0q-142 0 -241 100q-100 100 -100 241v427
q0 141 100 241t241 100h725q141 0 241 -100q8 -8 15 -16q7 8 15 16q100 100 241 100h726q141 0 241 -100t100 -241v-171q0 -71 -50 -121t-121 -50h-981v-85q0 -35 25 -60t60 -25h1046v-256h-1046q-141 0 -241 100q-8 7 -15 15q-7 -8 -15 -15q-100 -100 -241 -100h-725z" />
    <glyph glyph-name="Ydieresis" unicode="&#x178;" horiz-adv-x="1536" 
d="M512 0v426h-192q-142 0 -242 100q-99 100 -99 242v341h341v-256q0 -71 49 -121q51 -50 121 -50h384q71 0 121 50t50 121v256h341v-341q0 -142 -100 -242t-241 -100h-192v-426h-341zM298 1280v256h256v-256h-256zM810 1280v256h256v-256h-256z" />
    <glyph glyph-name="quoteleft" unicode="&#x2018;" horiz-adv-x="426" 
d="M0 682v256l97 171h146l-97 -171h110v-256h-256z" />
    <glyph glyph-name="quoteright" unicode="&#x2019;" horiz-adv-x="426" 
d="M12 682l97 171h-109v256h256v-256l-98 -171h-146z" />
    <glyph glyph-name="quotedblleft" unicode="&#x201c;" horiz-adv-x="768" 
d="M0 682v256l97 171h146l-97 -171h110v-256h-256zM341 682v256l97 171h147l-98 -171h110v-256h-256z" />
    <glyph glyph-name="quotedblright" unicode="&#x201d;" horiz-adv-x="768" 
d="M12 682l97 171h-109v256h256v-256l-98 -171h-146zM353 682l98 171h-110v256h256v-256l-98 -171h-146z" />
    <glyph glyph-name="guilsinglleft" unicode="&#x2039;" horiz-adv-x="1493" 
d="M1002 -21q-141 0 -241 99l-7 7h-1l-12 15q-3 4 -7 8l-194 233l-639 768h362l284 -341l367 -441q4 -3 8 -4q7 -3 16 -3q18 0 30 12q13 13 13 30v747h341v-832q0 -124 -87 -211q-88 -87 -211 -87h-22z" />
    <glyph glyph-name="guilsinglright" unicode="&#x203a;" horiz-adv-x="1493" 
d="M298 -21q-123 0 -211 87q-87 87 -87 211v832h341v-747q0 -17 12 -30q13 -12 31 -12q8 0 16 3q4 1 7 4l154 185l498 597h363l-835 -1001l-6 -8l-13 -15h-1q-3 -4 -6 -7q-100 -99 -241 -99h-22z" />
    <glyph glyph-name="Euro" unicode="&#x20ac;" horiz-adv-x="1493" 
d="M469 0q-142 0 -241 100q-100 100 -100 241v85h-170v86h170v85h-170v85h170v86q0 141 100 241t241 100h896v-256h-725q-71 0 -121 -50t-50 -121h683v-85h-683v-85h683v-86h-683q0 -70 50 -121q50 -49 121 -49h725v-256h-896z" />
    </font>
</defs>
</svg>
